PathFileType	4	(X/Y/Z)	G:\Shared drives\HIT\Data\HapticPilot\Subject1\Edited\static1.trc
DataRate	CameraRate	NumFrames	NumMarkers	Units	OrigDataRate	OrigDataStartFrame	OrigNumFrames
50.00	50.00	       4	38	mm	50.00	171	       227
Frame#	Time	r_knee			r_shank(antsup)			r_ankle			r_calc			r_5meta			r_toe			L_knee			L_shank(ant_sup)			L_ankle			L_calc			L_5meta			L_toe			r_mknee			r_mankle			L_mknee			L_mankle			r_sh2			r_sh3			r_sh4			L_sh2			L_sh3			r_thigh1			r_thigh2			r_thigh3			r_thigh4			r_thigh5			L_thigh1			L_thigh2			L_thigh3			L_thigh4			r.ASIS			r.PSIS			L.ASIS			L.PSIS			C7			R_Shoulder			L_Shoulder			Sternum			
		X1	Y1	Z1	X2	Y2	Z2	X3	Y3	Z3	X4	Y4	Z4	X5	Y5	Z5	X6	Y6	Z6	X7	Y7	Z7	X8	Y8	Z8	X9	Y9	Z9	X10	Y10	Z10	X11	Y11	Z11	X12	Y12	Z12	X13	Y13	Z13	X14	Y14	Z14	X15	Y15	Z15	X16	Y16	Z16	X17	Y17	Z17	X18	Y18	Z18	X19	Y19	Z19	X20	Y20	Z20	X21	Y21	Z21	X22	Y22	Z22	X23	Y23	Z23	X24	Y24	Z24	X25	Y25	Z25	X26	Y26	Z26	X27	Y27	Z27	X28	Y28	Z28	X29	Y29	Z29	X30	Y30	Z30	X31	Y31	Z31	X32	Y32	Z32	X33	Y33	Z33	X34	Y34	Z34	X35	Y35	Z35	X36	Y36	Z36	X37	Y37	Z37	X38	Y38	Z38	

171	3.400	777.60736	408.91974	575.54205	790.74652	404.04684	490.90073	735.25757	409.10388	114.36504	646.55377	452.18005	71.53244	847.16809	382.25793	39.31306	886.27313	445.09253	73.35695	771.24097	732.46527	572.97980	795.04022	733.61792	456.20697	705.83630	731.85498	113.78146	630.08813	681.17279	73.98235	821.08380	777.87067	42.41616	868.44293	721.43250	70.67860	775.14111	534.30334	554.28802	747.35358	505.38474	120.77261	788.38000	609.84454	561.92517	737.32007	642.10242	120.78671	786.24060	401.04700	370.84821	715.69446	392.12149	491.40225	704.17737	385.94193	375.61655	707.64417	752.38379	476.75549	694.80676	753.57751	354.82181	850.17822	394.30948	897.41187	847.94055	394.24622	782.37726	802.40503	381.31824	750.11273	737.07819	384.80179	892.85675	741.71698	393.69611	775.62103	864.57617	751.82977	838.55408	863.74847	742.58704	700.46368	749.47961	771.96033	838.74182	751.67957	752.58643	704.52399	875.20465	445.54230	1093.53369	686.74304	539.94055	1127.10693	886.35925	703.28839	1095.35522	695.74762	622.32764	1126.23572	734.52972	586.74438	1608.64453	776.32446	421.27377	1581.82959	803.83856	762.14465	1575.40918	876.30273	577.80884	1534.90125	
172	3.420	777.63348	408.94818	575.52167	790.84949	404.08484	490.92197	735.28534	409.09897	114.35281	646.54828	452.14966	71.53381	847.16644	382.25189	39.31783	886.28497	445.08582	73.38414	771.51471	732.46490	572.97473	795.33673	733.59314	456.18085	705.89886	731.84814	113.87051	630.06714	681.13513	74.02910	821.04901	777.85638	42.45444	868.45178	721.41028	70.66093	775.18768	534.31946	554.25677	747.32690	505.39209	120.74580	788.67633	609.91089	561.91553	737.40845	642.08124	120.81881	786.30676	401.09058	370.82791	715.76862	392.11584	491.39832	704.25220	385.96484	375.64557	707.95184	752.40894	476.72748	695.02222	753.59180	354.80194	850.28943	394.34641	897.41272	848.07263	394.29538	782.29822	802.49243	381.29608	750.04828	737.15472	384.80807	892.85474	741.79156	393.74356	775.55780	864.67657	751.91058	838.57971	863.97034	742.69006	700.42657	749.61658	772.06195	838.82440	751.99554	752.69659	704.47437	875.22241	445.70139	1093.51331	686.74799	539.99432	1127.11609	886.44153	703.40460	1095.38855	695.73334	622.36682	1126.20117	734.61993	586.61322	1608.68823	776.43542	421.19296	1581.77429	803.85620	762.06543	1575.43713	876.36554	577.81470	1534.88342	
173	3.440	777.70337	408.99219	575.49799	790.87366	404.10587	490.90747	735.27808	409.10947	114.36615	646.55078	452.13748	71.58451	847.17706	382.21878	39.35216	886.27972	445.08521	73.36749	771.67828	732.48199	572.96985	795.52319	733.62579	456.14709	705.90784	731.84601	113.88602	630.11133	681.16541	74.04631	821.07031	777.84705	42.45802	868.45984	721.39893	70.65458	775.24194	534.37244	554.25580	747.38373	505.41635	120.78699	788.93738	609.90228	561.94330	737.45160	642.04669	120.83706	786.31421	401.15042	370.82516	715.81738	392.13818	491.41751	704.33582	386.00018	375.61679	708.10712	752.41925	476.71805	695.07019	753.60120	354.83420	850.42157	394.42776	897.39258	848.09656	394.42712	782.25684	802.58337	381.38434	750.00214	737.34247	384.78815	892.74670	741.88141	393.74243	775.49005	864.80719	751.97833	838.58496	864.15332	742.78687	700.45740	749.83160	772.16364	838.71698	752.16937	752.71350	704.46582	875.29828	445.75482	1093.50269	686.82831	540.06323	1127.07410	886.51917	703.49884	1095.42004	695.72504	622.42950	1126.26611	734.73993	586.48499	1608.68176	776.57001	421.11212	1581.71240	803.83685	761.98029	1575.48035	876.40997	577.73773	1534.82483	
174	3.460	777.80652	409.08096	575.42993	790.92883	404.19113	490.89011	735.27771	409.13232	114.35204	646.57269	452.20300	71.55531	847.16498	382.26251	39.32478	886.27692	445.07562	73.35261	771.79114	732.52112	572.92096	795.67828	733.62738	456.08951	705.91309	731.84552	113.86591	630.06091	681.13843	74.07932	821.06940	777.84955	42.44271	868.44977	721.41736	70.66148	775.24982	534.46198	554.22986	747.37585	505.42322	120.73392	789.02374	609.94342	561.93860	737.36829	642.06195	120.82257	786.34326	401.16574	370.81616	715.87732	392.20923	491.40164	704.32611	386.03622	375.60245	708.20325	752.43695	476.72159	695.27783	753.71185	354.80148	850.47357	394.43539	897.28406	848.19110	394.44247	782.11652	802.70721	381.45264	749.92346	737.44196	384.74988	892.67603	742.04272	393.71454	775.43225	864.93860	751.99524	838.57184	864.29169	742.77905	700.43567	749.84381	772.12427	838.72211	752.25372	752.74487	704.43811	875.36316	445.83823	1093.49133	686.88306	540.14465	1127.06958	886.57159	703.56287	1095.41968	695.83984	622.55164	1126.12085	734.82324	586.46106	1608.70142	776.72083	421.03763	1581.63843	803.80707	761.89764	1575.48523	876.49005	577.76917	1534.73071	
